<?xml version="1.0" standalone="no"?>
<!DOCTYPE svg PUBLIC "-//W3C//DTD SVG 20010904//EN"
 "http://www.w3.org/TR/2001/REC-SVG-20010904/DTD/svg10.dtd">
<svg version="1.0" xmlns="http://www.w3.org/2000/svg"
 width="191.000000pt" height="178.000000pt" viewBox="0 0 191.000000 178.000000"
 preserveAspectRatio="xMidYMid meet">

<g transform="translate(0.000000,178.000000) scale(0.100000,-0.100000)"
fill="#000000" stroke="none">
<path d="M1302 1494 c2 -5 13 -28 24 -51 19 -43 30 -54 31 -30 0 6 4 19 7 27
4 9 1 23 -6 32 -14 17 -63 36 -56 22z"/>
<path d="M610 1420 c-8 -6 -46 -20 -85 -31 -56 -17 -66 -23 -50 -30 11 -4 15
-8 9 -8 -14 -1 -96 -72 -90 -78 2 -3 16 3 30 13 47 30 38 7 -16 -41 -44 -39
-47 -44 -20 -31 44 23 40 9 -10 -36 -24 -20 -38 -37 -31 -38 7 0 50 38 97 85
47 47 90 85 97 85 8 0 10 -17 5 -59 -5 -43 -3 -60 5 -63 10 -3 10 -14 0 -49
-20 -73 -13 -98 44 -142 122 -93 183 -127 231 -127 13 0 24 -4 24 -8 0 -5 19
-8 43 -8 41 1 127 -21 127 -33 0 -3 22 -4 49 -3 39 3 50 1 53 -13 4 -20 64 58
102 133 14 28 30 53 36 57 14 9 1 -53 -22 -98 -25 -51 -17 -58 12 -11 17 30
23 35 31 23 6 -9 9 5 9 44 0 36 4 56 10 52 6 -3 10 -17 10 -31 0 -14 4 -22 10
-19 6 3 10 19 10 34 0 30 -25 56 -153 162 -42 35 -102 84 -131 109 -83 69
-160 111 -231 126 -36 8 -81 20 -101 29 -42 17 -82 19 -104 5z m240 -102 c11
-12 20 -25 20 -30 0 -4 12 -8 28 -8 15 0 50 -8 77 -18 61 -22 84 -57 65 -101
-6 -16 -10 -41 -8 -57 l3 -29 -95 -6 c-52 -3 -102 -9 -112 -13 -11 -5 -18 -1
-23 14 -4 11 -30 38 -58 59 -81 59 -85 67 -54 99 14 15 33 46 42 70 16 39 20
42 56 42 26 0 44 -7 59 -22z m-180 -234 c0 -8 -4 -12 -10 -9 -5 3 -10 13 -10
21 0 8 5 12 10 9 6 -3 10 -13 10 -21z m-46 -35 c-7 -12 -41 -11 -49 1 -4 6 -1
18 6 26 10 13 14 12 30 -2 10 -9 16 -21 13 -25z m136 21 c0 -5 -5 -10 -11 -10
-5 0 -7 -5 -3 -11 12 -20 -19 -29 -38 -12 -17 15 -17 17 4 29 29 15 48 17 48
4z m195 -80 c3 -5 1 -10 -4 -10 -6 0 -11 5 -11 10 0 6 2 10 4 10 3 0 8 -4 11
-10z"/>
<path d="M1375 1340 c4 -6 9 -23 11 -38 6 -33 22 -51 32 -37 11 15 50 13 56
-2 3 -8 1 -11 -4 -8 -5 3 -27 -5 -48 -19 -29 -18 -39 -31 -38 -48 1 -13 -5
-39 -12 -58 -10 -22 -14 -67 -13 -125 1 -64 -5 -109 -19 -154 -17 -58 -18 -67
-4 -92 18 -35 22 -35 70 -6 102 61 180 167 218 296 15 50 15 57 0 79 -15 23
-21 24 -74 19 -32 -3 -65 -9 -72 -13 -19 -12 -48 -15 -48 -6 0 5 21 19 46 32
32 17 51 35 65 64 18 38 18 43 3 74 -8 18 -27 37 -40 43 -34 12 -137 12 -129
-1z"/>
<path d="M336 810 c-33 -72 -40 -94 -37 -132 1 -20 49 -32 91 -23 27 6 29 9
19 28 -7 11 -13 53 -14 93 -2 39 -7 80 -13 90 -9 16 -16 8 -46 -56z"/>
<path d="M432 835 c0 -16 2 -22 5 -12 2 9 2 23 0 30 -3 6 -5 -1 -5 -18z"/>
<path d="M1256 843 c-6 -14 -5 -15 5 -6 7 7 10 15 7 18 -3 3 -9 -2 -12 -12z"/>
<path d="M837 808 c-12 -8 -1 -12 18 -8 6 1 7 -2 3 -6 -10 -10 12 -35 24 -28
5 3 12 -3 14 -13 4 -15 12 -19 32 -15 26 5 26 5 3 13 -30 12 -19 26 22 31 26
3 37 -2 50 -18 13 -18 14 -24 3 -33 -7 -6 -16 -8 -19 -4 -4 3 -7 -3 -7 -15 0
-29 -27 -42 -62 -30 -16 6 -27 15 -26 22 2 6 -2 13 -7 14 -28 10 -45 24 -45
37 0 25 -18 25 -34 0 -16 -24 -16 -25 6 -22 20 2 23 -2 20 -26 -3 -30 14 -61
29 -51 5 3 7 10 4 15 -9 14 9 11 31 -6 11 -8 14 -15 7 -15 -18 0 -16 -31 3
-58 11 -16 20 -20 32 -13 19 10 50 -13 32 -24 -6 -3 -10 -1 -10 5 0 5 -17 -1
-37 -14 -21 -13 -62 -34 -90 -46 -45 -19 -63 -21 -120 -15 -59 6 -72 11 -100
41 -31 34 -53 43 -53 24 0 -5 7 -10 16 -10 11 0 13 -6 9 -19 -3 -11 3 -37 14
-58 11 -22 25 -68 32 -104 7 -35 16 -68 20 -72 10 -13 63 18 78 46 7 13 30 34
50 45 20 12 46 31 57 43 10 12 73 63 139 115 163 127 179 142 205 194 21 41
21 44 3 28 -29 -26 -36 -22 -28 18 l6 36 -25 -19 c-14 -10 -26 -22 -26 -28 -1
-23 -38 -58 -54 -52 -15 6 -15 9 -1 30 8 13 12 27 9 30 -4 4 -2 12 4 19 8 10
1 13 -31 11 -23 0 -47 3 -53 8 -6 5 -18 3 -30 -6 -25 -19 -65 -20 -58 -1 4 10
-2 14 -21 12 -15 0 -32 -4 -38 -8z m232 -124 c2 -2 2 -7 -2 -10 -3 -3 -16 2
-29 11 l-23 17 25 -7 c14 -4 27 -9 29 -11z m-24 -24 c0 -7 -6 -15 -12 -17 -8
-3 -13 4 -13 17 0 13 5 20 13 18 6 -3 12 -11 12 -18z m-77 -40 c12 -1 10 -5
-8 -15 -33 -19 -37 -18 -43 4 -6 26 14 47 26 26 4 -8 16 -15 25 -15z"/>
<path d="M723 763 c9 -2 25 -2 35 0 9 3 1 5 -18 5 -19 0 -27 -2 -17 -5z"/>
<path d="M711 714 c0 -11 3 -14 6 -6 3 7 2 16 -1 19 -3 4 -6 -2 -5 -13z"/>
<path d="M920 726 c0 -2 7 -7 16 -10 8 -3 12 -2 9 4 -6 10 -25 14 -25 6z"/>
<path d="M1255 709 c-4 -6 -5 -12 -2 -15 2 -3 7 2 10 11 7 17 1 20 -8 4z"/>
<path d="M1400 691 c32 -27 33 -31 22 -55 -16 -35 -15 -76 1 -78 6 -1 -13 -5
-43 -8 -54 -7 -54 -7 10 -4 36 2 73 4 83 5 26 0 104 56 110 78 13 49 -60 91
-157 91 l-61 -1 35 -28z"/>
<path d="M1295 630 c-16 -17 -24 -30 -19 -30 13 0 59 48 52 55 -2 3 -17 -9
-33 -25z"/>
<path d="M678 609 c-10 -5 -18 -15 -18 -21 0 -6 6 -6 15 2 14 11 22 7 55 -25
48 -47 52 -38 8 15 -36 44 -36 44 -60 29z"/>
<path d="M1105 595 c-16 -13 -35 -24 -42 -25 -6 0 -36 -28 -65 -62 -29 -34
-68 -77 -86 -95 -39 -38 -38 -38 36 -17 41 12 70 28 102 60 25 24 49 44 54 44
4 0 5 -14 1 -30 -7 -30 -6 -31 22 -25 81 19 92 26 118 77 14 28 23 53 20 57
-4 3 -21 -12 -39 -34 -33 -38 -33 -39 -45 -17 -14 26 -44 28 -85 7 -15 -8 -33
-12 -39 -8 -5 3 -7 1 -3 -5 3 -6 1 -14 -5 -18 -8 -4 -9 -3 -5 4 16 27 -11 9
-47 -30 -32 -35 -30 -32 6 12 24 30 51 55 60 55 8 0 26 12 41 28 14 15 30 27
36 27 5 0 10 5 10 10 0 16 -13 12 -45 -15z"/>
<path d="M411 561 c-19 -24 -35 -57 -38 -80 -4 -33 -1 -41 22 -59 17 -14 42
-22 65 -22 33 0 39 4 44 28 4 15 9 34 12 43 3 13 -1 15 -23 12 -27 -4 -27 -4
-9 11 11 9 24 16 28 16 9 0 6 5 -40 59 l-28 34 -33 -42z"/>
<path d="M1136 585 c-23 -17 -13 -34 11 -19 19 12 29 34 16 34 -4 0 -17 -7
-27 -15z"/>
<path d="M1160 349 c-36 -46 -48 -69 -35 -69 11 0 105 95 105 106 0 29 -31 12
-70 -37z"/>
<path d="M1140 375 c-20 -24 -6 -28 15 -5 10 11 13 20 8 20 -6 0 -16 -7 -23
-15z"/>
<path d="M1300 363 c-62 -36 -102 -71 -123 -106 -30 -50 -12 -42 58 25 37 34
83 73 103 85 20 13 30 23 22 23 -8 0 -35 -12 -60 -27z"/>
<path d="M1035 369 c-11 -6 -29 -22 -39 -36 -18 -24 -18 -26 -2 -20 23 9 75
50 75 60 1 9 -9 8 -34 -4z"/>
<path d="M885 325 c-37 -18 -51 -21 -58 -12 -7 9 -10 9 -14 0 -2 -7 -11 -13
-19 -13 -8 0 -14 -10 -14 -25 0 -39 0 -40 15 -37 8 1 25 -4 37 -12 14 -9 35
-12 51 -9 l28 6 -23 24 -23 25 28 20 c24 17 55 58 44 58 -2 0 -26 -11 -52 -25z"/>
<path d="M630 270 c0 -5 5 -10 10 -10 6 0 10 5 10 10 0 6 -4 10 -10 10 -5 0
-10 -4 -10 -10z"/>
<path d="M1298 255 c-39 -26 -56 -45 -38 -45 5 0 27 16 48 35 43 40 41 43 -10
10z"/>
<path d="M1215 219 c-4 -6 -5 -12 -2 -15 2 -3 7 2 10 11 7 17 1 20 -8 4z"/>
<path d="M965 170 c4 -6 11 -8 16 -5 14 9 11 15 -7 15 -8 0 -12 -5 -9 -10z"/>
</g>
</svg>
